<?xml version="1.0" encoding="UTF-8" standalone="no"?>
<!DOCTYPE svg PUBLIC "-//W3C//DTD SVG 20010904//EN"
              "http://www.w3.org/TR/2001/REC-SVG-20010904/DTD/svg10.dtd">

<svg xmlns="http://www.w3.org/2000/svg"
     width="26.6528in" height="17.4861in"
     viewBox="0 0 1919 1259">
  <path id="Selection"
        fill="none" stroke="black" stroke-width="1"
        d="M 0.00,3.00
           C 0.00,3.00 1914.00,3.00 1914.00,3.00
             1914.00,3.00 1914.00,174.00 1914.00,174.00
             1914.00,174.00 1914.00,260.00 1914.00,260.00
             1914.00,260.00 1915.00,275.00 1915.00,275.00
             1915.00,275.00 1915.00,545.00 1915.00,545.00
             1915.00,545.00 1915.00,717.00 1915.00,717.00
             1915.00,717.00 1915.00,770.00 1915.00,770.00
             1915.00,770.00 1916.00,799.00 1916.00,799.00
             1916.00,799.00 1891.00,800.00 1891.00,800.00
             1891.00,800.00 1870.00,800.00 1870.00,800.00
             1870.00,800.00 1854.00,801.00 1854.00,801.00
             1854.00,801.00 1813.00,801.00 1813.00,801.00
             1813.00,801.00 1796.00,802.00 1796.00,802.00
             1796.00,802.00 1746.84,802.00 1746.84,802.00
             1746.77,799.13 1746.01,795.76 1746.84,793.00
             1746.84,793.00 1762.04,762.00 1762.04,762.00
             1763.51,757.77 1762.99,749.73 1763.00,745.00
             1763.00,745.00 1763.96,732.00 1763.96,732.00
             1764.33,722.48 1757.84,714.03 1753.28,706.00
             1753.28,706.00 1744.39,691.21 1744.39,691.21
             1741.65,688.05 1729.27,680.84 1725.00,678.19
             1725.00,678.19 1701.00,663.81 1701.00,663.81
             1696.51,662.16 1690.71,662.29 1686.00,661.83
             1686.00,661.83 1668.00,660.41 1668.00,660.41
             1664.59,660.78 1651.85,666.92 1648.00,668.75
             1648.00,668.75 1614.00,684.00 1614.00,684.00
             1613.12,680.95 1611.36,675.00 1611.34,672.00
             1611.34,672.00 1617.52,641.00 1617.52,641.00
             1617.96,636.63 1616.19,633.76 1614.22,630.00
             1612.66,627.03 1609.40,620.69 1606.79,618.85
             1604.07,616.94 1597.43,616.35 1594.00,615.87
             1594.00,615.87 1576.00,612.94 1576.00,612.94
             1576.00,612.94 1568.00,612.94 1568.00,612.94
             1568.00,612.94 1497.00,606.83 1497.00,606.83
             1497.00,606.83 1449.00,603.00 1449.00,603.00
             1449.00,603.00 1399.00,603.00 1399.00,603.00
             1399.00,603.00 1382.00,604.00 1382.00,604.00
             1382.00,604.00 1272.00,604.00 1272.00,604.00
             1272.00,604.00 1257.00,605.00 1257.00,605.00
             1257.00,605.00 1147.00,605.00 1147.00,605.00
             1147.00,605.00 1132.00,606.00 1132.00,606.00
             1132.00,606.00 1085.00,606.00 1085.00,606.00
             1073.23,606.02 1062.15,610.92 1051.00,614.28
             1047.51,615.33 1041.14,616.55 1038.85,619.42
             1037.20,621.49 1036.54,626.32 1036.00,629.00
             1033.55,641.24 1033.86,643.69 1034.00,656.00
             1034.00,656.00 1035.00,669.00 1035.00,669.00
             1035.00,669.00 1036.00,699.00 1036.00,699.00
             1036.00,699.00 1037.00,714.00 1037.00,714.00
             1037.00,714.00 1038.44,743.00 1038.44,743.00
             1038.44,743.00 1050.00,803.00 1050.00,803.00
             1050.00,803.00 1012.00,810.00 1012.00,810.00
             1005.44,811.31 998.67,813.58 992.00,811.96
             992.00,811.96 954.00,793.75 954.00,793.75
             949.28,791.40 940.24,786.89 935.00,787.15
             935.00,787.15 915.00,792.13 915.00,792.13
             915.00,792.13 866.00,805.11 866.00,805.11
             866.00,805.11 828.00,808.09 828.00,808.09
             828.00,808.09 801.00,810.09 801.00,810.09
             801.00,810.09 791.00,811.00 791.00,811.00
             788.26,811.03 784.59,811.13 782.00,810.35
             777.60,809.03 764.75,799.75 760.00,796.69
             756.42,794.39 750.13,789.76 746.00,789.65
             746.00,789.65 730.00,791.87 730.00,791.87
             730.00,791.87 690.00,797.73 690.00,797.73
             690.00,797.73 621.00,807.00 621.00,807.00
             621.00,807.00 603.00,807.00 603.00,807.00
             603.00,807.00 587.00,806.00 587.00,806.00
             587.00,806.00 545.00,806.00 545.00,806.00
             545.00,806.00 528.00,805.00 528.00,805.00
             528.00,805.00 488.00,805.00 488.00,805.00
             488.00,805.00 471.00,804.00 471.00,804.00
             471.00,804.00 428.00,804.00 428.00,804.00
             428.00,804.00 413.00,803.00 413.00,803.00
             413.00,803.00 369.00,803.00 369.00,803.00
             369.00,803.00 352.00,802.00 352.00,802.00
             352.00,802.00 346.00,802.00 346.00,802.00
             346.00,802.00 333.00,801.00 333.00,801.00
             333.00,801.00 295.00,798.83 295.00,798.83
             295.00,798.83 251.00,795.00 251.00,795.00
             251.00,795.00 241.00,796.00 241.00,796.00
             241.00,796.00 232.00,796.00 232.00,796.00
             232.00,796.00 201.00,798.00 201.00,798.00
             201.00,798.00 170.00,800.00 170.00,800.00
             170.00,800.00 154.00,800.00 154.00,800.00
             154.00,800.00 138.00,801.00 138.00,801.00
             138.00,801.00 115.00,801.00 115.00,801.00
             115.00,801.00 82.00,799.96 82.00,799.96
             75.73,799.69 72.14,798.41 65.00,799.17
             65.00,799.17 3.00,812.00 3.00,812.00
             3.00,812.00 3.00,785.00 3.00,785.00
             3.00,785.00 2.00,768.00 2.00,768.00
             2.00,768.00 1.00,697.00 1.00,697.00
             1.00,697.00 0.00,680.00 0.00,680.00
             0.00,680.00 0.00,3.00 0.00,3.00 Z
           M 1600.00,799.00
           C 1600.00,799.00 1602.84,774.00 1602.84,774.00
             1603.15,771.03 1603.17,766.05 1604.95,763.61
             1607.46,760.18 1615.76,758.30 1621.30,750.00
             1623.52,746.68 1625.82,738.26 1627.42,734.00
             1632.76,719.85 1636.27,709.98 1649.00,700.42
             1652.60,697.71 1655.84,697.26 1660.00,695.98
             1665.98,694.14 1675.00,690.75 1681.00,691.09
             1692.82,691.76 1698.55,695.03 1709.00,699.58
             1712.12,700.93 1717.91,703.14 1720.22,705.47
             1722.33,707.61 1726.25,715.01 1728.01,718.00
             1729.91,721.23 1732.80,725.42 1733.61,729.00
             1734.71,733.86 1735.68,751.38 1734.37,756.00
             1734.37,756.00 1728.14,770.00 1728.14,770.00
             1723.55,780.30 1722.21,784.68 1713.00,791.63
             1705.09,797.60 1704.07,799.98 1694.00,800.00
             1694.00,800.00 1671.00,800.00 1671.00,800.00
             1671.00,800.00 1656.00,799.00 1656.00,799.00
             1656.00,799.00 1600.00,799.00 1600.00,799.00 Z" />
</svg>
